<svg width="360" height="78" viewBox="0 0 360 78" fill="none" xmlns="http://www.w3.org/2000/svg">
<path d="M14.9723 32.1738V54.6752C14.9723 55.6029 14.6053 56.4926 13.9521 57.1486C13.2988 57.8046 12.4128 58.1732 11.489 58.1732C10.5651 58.1732 9.67912 57.8046 9.02586 57.1486C8.37261 56.4926 8.00561 55.6029 8.00561 54.6752V20.6035H0V54.6752C0.00386713 57.1222 0.782557 59.5044 2.22349 61.4777C3.66443 63.451 5.69295 64.913 8.0158 65.6523C10.2812 66.382 12.7171 66.382 14.9825 65.6523C17.3054 64.913 19.3339 63.451 20.7748 61.4777C22.2158 59.5044 22.9944 57.1222 22.9983 54.6752V26.3644H14.9723V32.1738Z" fill="#151F4F"/>
<path d="M53.2258 29.5659H45.21V66.1997H53.2258V29.5659Z" fill="#151F4F"/>
<path d="M87.7051 29.5655C86.5164 29.5813 85.3358 29.7664 84.1989 30.1153C81.8816 30.8783 79.8613 32.3527 78.4231 34.3305C76.9849 36.3083 76.2014 38.6895 76.1831 41.1384V54.629H76.1347C76.1354 55.092 76.0451 55.5506 75.869 55.9786C75.6929 56.4065 75.4346 56.7954 75.1086 57.1229C74.7827 57.4504 74.3957 57.7102 73.9696 57.8873C73.5436 58.0644 73.087 58.1554 72.6259 58.1551C72.1679 58.1541 71.7146 58.062 71.2922 57.8842C70.8698 57.7063 70.4867 57.4462 70.1649 57.1188C69.8432 56.7914 69.5892 56.4033 69.4177 55.9769C69.2461 55.5504 69.1604 55.094 69.1654 54.6341V37.6149H72.5342V29.5655H69.1654V21.8818H61.1496V29.5655H57.7783V37.6149H61.1496V54.629C61.1525 57.0817 61.93 59.4703 63.3704 61.4511C64.8108 63.4318 66.8398 64.9027 69.1654 65.6521C70.2824 66.0189 71.4507 66.2036 72.6259 66.1993C75.4017 66.198 78.0826 65.1849 80.1706 63.3483C81.3468 64.3778 82.7166 65.1603 84.1989 65.6496C85.3308 66.0198 86.5147 66.2046 87.7051 66.1968C90.7528 66.1839 93.6714 64.9593 95.8221 62.7909C97.9729 60.6225 99.1807 57.6869 99.1814 54.6265H91.1579C91.164 55.0864 91.0793 55.5429 90.9087 55.9698C90.738 56.3966 90.4849 56.7853 90.1639 57.1134C89.8429 57.4415 89.4603 57.7024 89.0383 57.8812C88.6163 58.06 88.1632 58.1531 87.7051 58.1551C86.7754 58.1544 85.884 57.7832 85.2266 57.1231C84.5692 56.4629 84.1995 55.5677 84.1989 54.6341V50.1006H99.1814V41.1384C99.1807 38.0777 97.973 35.1418 95.8223 32.973C93.6716 30.8042 90.7531 29.5791 87.7051 29.5655ZM91.1579 42.0461H84.1989V41.1333C84.2068 40.2017 84.5787 39.3105 85.2345 38.6515C85.8902 37.9926 86.7775 37.6185 87.7051 37.6098C88.6277 37.6219 89.5082 37.9995 90.1549 38.6604C90.8015 39.3213 91.1621 40.2119 91.1579 41.1384V42.0461Z" fill="#151F4F"/>
<path d="M31.6534 30.1157C30.5314 29.7703 29.3665 29.5852 28.193 29.5659C27.3463 29.5717 26.5027 29.6703 25.6772 29.86V38.7045C26.1558 38.1956 26.7761 37.8437 27.4572 37.6948C28.1382 37.5459 28.8482 37.607 29.4941 37.8701C30.1399 38.1332 30.6916 38.586 31.077 39.1692C31.4623 39.7525 31.6632 40.4389 31.6534 41.1388V66.1971H39.6692V41.1388C39.6606 38.6875 38.8808 36.3017 37.4412 34.3221C36.0016 32.3424 33.976 30.8702 31.6534 30.1157Z" fill="#151F4F"/>
<path d="M116.183 66.1992C113.136 66.1864 110.217 64.9618 108.066 62.7934C105.916 60.625 104.708 57.6894 104.707 54.6289V41.1383C104.708 38.0776 105.915 35.1417 108.066 32.9729C110.217 30.8041 113.135 29.579 116.183 29.5655C117.373 29.5814 118.554 29.7665 119.692 30.1152V17.7676H127.708V66.1992H119.692V65.652C118.559 66.0221 117.375 66.2068 116.183 66.1992ZM116.183 37.6148C115.26 37.6249 114.379 38.0009 113.73 38.6609C113.082 39.3209 112.72 40.2114 112.723 41.1383V54.6289C112.717 55.0893 112.802 55.5462 112.974 55.9732C113.145 56.4003 113.399 56.789 113.72 57.1169C114.042 57.4448 114.426 57.7054 114.848 57.8836C115.271 58.0618 115.725 58.154 116.183 58.155C117.113 58.155 118.006 57.7841 118.663 57.1239C119.321 56.4636 119.691 55.5681 119.692 54.634V41.1383C119.684 40.2063 119.312 39.3147 118.656 38.6557C117.999 37.9966 117.111 37.6228 116.183 37.6148Z" fill="#151F4F"/>
<path d="M49.1262 17.7676H49.3095C50.3482 17.7676 51.3443 18.1819 52.0787 18.9194C52.8132 19.6569 53.2258 20.6572 53.2258 21.7002C53.2258 22.7432 52.8132 23.7435 52.0787 24.481C51.3443 25.2185 50.3482 25.6328 49.3095 25.6328H49.1262C48.0875 25.6328 47.0914 25.2185 46.357 24.481C45.6226 23.7435 45.21 22.7432 45.21 21.7002C45.21 20.6572 45.6226 19.6569 46.357 18.9194C47.0914 18.1819 48.0875 17.7676 49.1262 17.7676Z" fill="#FF6839"/>
<path d="M105.02 23.4468C107.984 17.755 112.516 12.8814 117.815 9.06131C123.194 5.22678 129.291 2.52508 135.737 1.11889C142.183 -0.28731 148.846 -0.368913 155.325 0.878991C161.737 2.15748 167.883 4.69656 172.92 8.65219C171.375 8.26354 169.839 7.89789 168.311 7.55525C166.783 7.21262 165.268 6.92112 163.763 6.68077C160.779 6.18484 157.767 5.86977 154.744 5.73724C148.808 5.46071 142.86 5.94967 137.048 7.19216C131.241 8.4532 125.626 10.477 120.346 13.2113C119.014 13.9017 117.696 14.6313 116.392 15.4001C115.093 16.1825 113.802 16.993 112.529 17.8496C111.256 18.7062 110.008 19.6139 108.753 20.5447C107.498 21.4754 106.273 22.4496 105.02 23.4468Z" fill="#FF6839"/>
<path d="M138.55 27.3155C138.851 26.4947 139.314 26.0831 139.971 26.0831H148.239C148.575 26.0803 148.898 26.2076 149.143 26.4385C149.267 26.5477 149.366 26.6827 149.433 26.8341C149.5 26.9856 149.533 27.1499 149.53 27.3155V50.5993H157.752C157.919 50.5961 158.085 50.63 158.238 50.6985C158.391 50.767 158.526 50.8685 158.636 50.9957C158.867 51.2413 158.995 51.5676 158.992 51.9059V55.7977C158.994 56.1351 158.867 56.4604 158.636 56.7054C158.527 56.8295 158.393 56.9285 158.243 56.9956C158.092 57.0627 157.929 57.0963 157.765 57.094H149.53V64.9414C149.533 65.1071 149.5 65.2714 149.433 65.4229C149.366 65.5744 149.267 65.7094 149.143 65.8184C148.899 66.0503 148.575 66.1777 148.239 66.1739H143.073C142.737 66.1783 142.412 66.0507 142.169 65.8184C142.044 65.7094 141.945 65.5744 141.879 65.4229C141.812 65.2714 141.779 65.1071 141.782 64.9414V57.0864H132.36C132.196 57.0892 132.032 57.0558 131.882 56.9887C131.732 56.9216 131.598 56.8222 131.489 56.6977C131.257 56.4534 131.129 56.1277 131.133 55.79V49.9524C131.139 49.7559 131.161 49.5601 131.197 49.3669C131.212 49.1811 131.28 49.0036 131.393 48.8555L138.55 27.3155ZM141.782 39.2489L138.487 50.5993H141.782V39.2489Z" fill="#FF6839"/>
<text x="156" y="66.2" font-family="Arial, Helvetica, sans-serif" font-size="63" font-weight="900" letter-spacing="-4.5" fill="#151F4F">Games</text>
</svg>